HIERARCHY
ROOT Hips
{
	OFFSET 0.000000 97.167313 0.000000
	CHANNELS 6 Xposition Yposition Zposition Xrotation Yrotation Zrotation
	JOINT Spine
	{
		OFFSET 0.000000 13.784798 0.064400
		CHANNELS 3 Xrotation Yrotation Zrotation
		JOINT Spine1
		{
			OFFSET 0.000000 12.037903 0.404700
			CHANNELS 3 Xrotation Yrotation Zrotation
			JOINT Spine2
			{
				OFFSET 0.000000 17.795601 0.420200
				CHANNELS 3 Xrotation Yrotation Zrotation
				JOINT Neck
				{
					OFFSET 0.000000 39.131302 11.954600
					CHANNELS 3 Xrotation Yrotation Zrotation
					JOINT Head
					{
						OFFSET 0.000000 14.456192 15.627699
						CHANNELS 3 Xrotation Yrotation Zrotation
						JOINT HeadTop_End
						{
							OFFSET 0.000000 15.703506 7.603401
							CHANNELS 3 Xrotation Yrotation Zrotation
							End Site
							{
								OFFSET 0.000000 17.447403 0.000000
							}
						}
					}
				}
				JOINT LeftShoulder
				{
					OFFSET 17.399500 24.608795 1.168800
					CHANNELS 3 Xrotation Yrotation Zrotation
					JOINT LeftArm
					{
						OFFSET 18.980635 5.765305 1.818600
						CHANNELS 3 Xrotation Yrotation Zrotation
						JOINT LeftForeArm
						{
							OFFSET 49.290169 0.000000 0.000000
							CHANNELS 3 Xrotation Yrotation Zrotation
							JOINT LeftHand
							{
								OFFSET 31.562012 0.000000 0.000000
								CHANNELS 3 Xrotation Yrotation Zrotation
								JOINT LeftHandThumb1
								{
									OFFSET 6.133995 -4.388519 7.076070
									CHANNELS 3 Xrotation Yrotation Zrotation
									JOINT LeftHandThumb2
									{
										OFFSET 6.037666 -3.485840 3.485847
										CHANNELS 3 Xrotation Yrotation Zrotation
										JOINT LeftHandThumb3
										{
											OFFSET 6.496506 -3.750763 3.750761
											CHANNELS 3 Xrotation Yrotation Zrotation
											JOINT LeftHandThumb4
											{
												OFFSET 5.616882 -3.242905 3.242910
												CHANNELS 3 Xrotation Yrotation Zrotation
												End Site
												{
													OFFSET -1.254608 7.132141 0.375429
												}
											}
										}
									}
								}
								JOINT LeftHandPinky1
								{
									OFFSET 18.920792 -0.453171 -11.426712
									CHANNELS 3 Xrotation Yrotation Zrotation
									JOINT LeftHandPinky2
									{
										OFFSET 4.919586 0.000000 0.000000
										CHANNELS 3 Xrotation Yrotation Zrotation
										JOINT LeftHandPinky3
										{
											OFFSET 5.233047 0.000000 0.000000
											CHANNELS 3 Xrotation Yrotation Zrotation
											JOINT LeftHandPinky4
											{
												OFFSET 5.571716 0.000000 0.000000
												CHANNELS 3 Xrotation Yrotation Zrotation
												End Site
												{
													OFFSET -3.459808 4.342407 -0.466164
												}
											}
										}
									}
								}
								JOINT LeftHandRing1
								{
									OFFSET 22.726120 -0.094986 -6.500475
									CHANNELS 3 Xrotation Yrotation Zrotation
									JOINT LeftHandRing2
									{
										OFFSET 6.408615 0.000000 0.000000
										CHANNELS 3 Xrotation Yrotation Zrotation
										JOINT LeftHandRing3
										{
											OFFSET 6.150223 0.000000 0.000000
											CHANNELS 3 Xrotation Yrotation Zrotation
											JOINT LeftHandRing4
											{
												OFFSET 6.145386 0.000000 0.000000
												CHANNELS 3 Xrotation Yrotation Zrotation
												End Site
												{
													OFFSET -3.671402 4.923981 -0.202372
												}
											}
										}
									}
								}
								JOINT LeftHandMiddle1
								{
									OFFSET 23.373947 0.000000 0.000001
									CHANNELS 3 Xrotation Yrotation Zrotation
									JOINT LeftHandMiddle2
									{
										OFFSET 6.996567 0.000000 0.000000
										CHANNELS 3 Xrotation Yrotation Zrotation
										JOINT LeftHandMiddle3
										{
											OFFSET 7.015945 0.000000 0.000000
											CHANNELS 3 Xrotation Yrotation Zrotation
											JOINT LeftHandMiddle4
											{
												OFFSET 7.721573 0.000000 0.000000
												CHANNELS 3 Xrotation Yrotation Zrotation
												End Site
												{
													OFFSET -4.651108 6.158463 0.251582
												}
											}
										}
									}
								}
								JOINT LeftHandIndex1
								{
									OFFSET 21.310577 -0.490082 6.209344
									CHANNELS 3 Xrotation Yrotation Zrotation
									JOINT LeftHandIndex2
									{
										OFFSET 7.536453 0.000000 0.000000
										CHANNELS 3 Xrotation Yrotation Zrotation
										JOINT LeftHandIndex3
										{
											OFFSET 7.512344 0.000000 0.000000
											CHANNELS 3 Xrotation Yrotation Zrotation
											JOINT LeftHandIndex4
											{
												OFFSET 10.212402 0.000000 0.000001
												CHANNELS 3 Xrotation Yrotation Zrotation
												End Site
												{
													OFFSET -5.180801 8.690506 1.388433
												}
											}
										}
									}
								}
							}
						}
					}
				}
				JOINT RightShoulder
				{
					OFFSET -17.399500 24.608795 1.168800
					CHANNELS 3 Xrotation Yrotation Zrotation
					JOINT RightArm
					{
						OFFSET -18.980635 5.765305 1.818600
						CHANNELS 3 Xrotation Yrotation Zrotation
						JOINT RightForeArm
						{
							OFFSET -49.290169 0.000000 0.000000
							CHANNELS 3 Xrotation Yrotation Zrotation
							JOINT RightHand
							{
								OFFSET -31.562012 0.000000 0.000000
								CHANNELS 3 Xrotation Yrotation Zrotation
								JOINT RightHandThumb1
								{
									OFFSET -6.133995 -4.388519 7.076070
									CHANNELS 3 Xrotation Yrotation Zrotation
									JOINT RightHandThumb2
									{
										OFFSET -6.037666 -3.485840 3.485847
										CHANNELS 3 Xrotation Yrotation Zrotation
										JOINT RightHandThumb3
										{
											OFFSET -6.496506 -3.750763 3.750761
											CHANNELS 3 Xrotation Yrotation Zrotation
											JOINT RightHandThumb4
											{
												OFFSET -5.616882 -3.242905 3.242910
												CHANNELS 3 Xrotation Yrotation Zrotation
												End Site
												{
													OFFSET 1.254608 7.132141 0.375429
												}
											}
										}
									}
								}
								JOINT RightHandIndex1
								{
									OFFSET -21.310577 -0.490082 6.209344
									CHANNELS 3 Xrotation Yrotation Zrotation
									JOINT RightHandIndex2
									{
										OFFSET -7.536453 0.000000 0.000000
										CHANNELS 3 Xrotation Yrotation Zrotation
										JOINT RightHandIndex3
										{
											OFFSET -7.512344 0.000000 0.000000
											CHANNELS 3 Xrotation Yrotation Zrotation
											JOINT RightHandIndex4
											{
												OFFSET -10.212402 0.000000 0.000001
												CHANNELS 3 Xrotation Yrotation Zrotation
												End Site
												{
													OFFSET 5.180801 8.690506 1.388433
												}
											}
										}
									}
								}
								JOINT RightHandMiddle1
								{
									OFFSET -23.373947 0.000000 0.000001
									CHANNELS 3 Xrotation Yrotation Zrotation
									JOINT RightHandMiddle2
									{
										OFFSET -6.996567 0.000000 0.000000
										CHANNELS 3 Xrotation Yrotation Zrotation
										JOINT RightHandMiddle3
										{
											OFFSET -7.015945 0.000000 0.000000
											CHANNELS 3 Xrotation Yrotation Zrotation
											JOINT RightHandMiddle4
											{
												OFFSET -7.721573 0.000000 0.000000
												CHANNELS 3 Xrotation Yrotation Zrotation
												End Site
												{
													OFFSET 4.651108 6.158463 0.251582
												}
											}
										}
									}
								}
								JOINT RightHandRing1
								{
									OFFSET -22.726120 -0.094986 -6.500475
									CHANNELS 3 Xrotation Yrotation Zrotation
									JOINT RightHandRing2
									{
										OFFSET -6.408615 0.000000 0.000000
										CHANNELS 3 Xrotation Yrotation Zrotation
										JOINT RightHandRing3
										{
											OFFSET -6.150223 0.000000 0.000000
											CHANNELS 3 Xrotation Yrotation Zrotation
											JOINT RightHandRing4
											{
												OFFSET -6.145386 0.000000 0.000000
												CHANNELS 3 Xrotation Yrotation Zrotation
												End Site
												{
													OFFSET 3.671402 4.923981 -0.202372
												}
											}
										}
									}
								}
								JOINT RightHandPinky1
								{
									OFFSET -18.920792 -0.453171 -11.426712
									CHANNELS 3 Xrotation Yrotation Zrotation
									JOINT RightHandPinky2
									{
										OFFSET -4.919586 0.000000 0.000000
										CHANNELS 3 Xrotation Yrotation Zrotation
										JOINT RightHandPinky3
										{
											OFFSET -5.233047 0.000000 0.000000
											CHANNELS 3 Xrotation Yrotation Zrotation
											JOINT RightHandPinky4
											{
												OFFSET -5.571716 0.000000 0.000000
												CHANNELS 3 Xrotation Yrotation Zrotation
												End Site
												{
													OFFSET 3.459808 4.342407 -0.466164
												}
											}
										}
									}
								}
							}
						}
					}
				}
			}
		}
	}
	JOINT LeftUpLeg
	{
		OFFSET 19.899099 -7.885101 -3.429500
		CHANNELS 3 Xrotation Yrotation Zrotation
		JOINT LeftLeg
		{
			OFFSET 1.745560 -36.997807 10.304700
			CHANNELS 3 Xrotation Yrotation Zrotation
			JOINT LeftFoot
			{
				OFFSET -1.745558 -29.803308 -13.615400
				CHANNELS 3 Xrotation Yrotation Zrotation
				JOINT LeftToeBase
				{
					OFFSET 1.181900 -18.539904 15.226099
					CHANNELS 3 Xrotation Yrotation Zrotation
					JOINT LeftToe_End
					{
						OFFSET -0.863701 1.402801 16.534700
						CHANNELS 3 Xrotation Yrotation Zrotation
						End Site
						{
							OFFSET 0.000000 16.616566 0.000000
						}
					}
				}
			}
		}
	}
	JOINT RightUpLeg
	{
		OFFSET -19.899099 -7.885101 -3.429500
		CHANNELS 3 Xrotation Yrotation Zrotation
		JOINT RightLeg
		{
			OFFSET -1.745560 -36.997807 10.304700
			CHANNELS 3 Xrotation Yrotation Zrotation
			JOINT RightFoot
			{
				OFFSET 1.745558 -29.803308 -13.615400
				CHANNELS 3 Xrotation Yrotation Zrotation
				JOINT RightToeBase
				{
					OFFSET -1.181900 -18.539904 15.226099
					CHANNELS 3 Xrotation Yrotation Zrotation
					JOINT RightToe_End
					{
						OFFSET 0.863701 1.402801 16.534700
						CHANNELS 3 Xrotation Yrotation Zrotation
						End Site
						{
							OFFSET 0.000000 16.616566 0.000000
						}
					}
				}
			}
		}
	}
}
MOTION
Frames: 4
Frame Time: 0.033333
19.262165 80.892807 -0.431837 159.048372 -52.511737 166.843736 10.643978 -2.801433 1.273937 5.190847 -0.936561 -5.935750 -7.865725 -0.066882 -3.407682 6.754337 17.519703 -5.630198 -11.526656 15.540086 -1.520121 0.000001 -0.000000 -0.000000 -1.913871 -15.088334 -4.812602 -20.703582 -4.551648 -46.816220 -18.663661 -37.613783 -17.639670 1.894746 -14.396548 -2.788431 20.194120 -4.708699 10.447539 3.313688 16.986197 -9.294451 9.233752 14.664889 -1.332370 -0.000001 0.000001 0.000003 -1.583181 3.712180 -37.053028 -0.945585 -0.773683 -31.881516 -2.236613 -0.220370 -49.817160 -0.000002 -0.000003 -0.000003 0.788405 4.534542 -30.549414 -0.976088 -1.222302 -35.766822 -1.031720 -1.352221 -38.930579 0.000002 0.000003 -0.000002 2.444075 2.865844 -22.815041 -0.016849 -2.018193 -31.204699 0.020156 -2.389891 -34.773767 -0.000001 0.000000 0.000006 -0.771810 0.139010 -13.088649 0.029837 -0.754287 -17.267133 -0.101219 -1.038866 -20.232458 -0.000000 0.000001 0.000001 -5.480747 23.917094 1.701177 -8.939942 -23.211571 55.121546 17.135654 33.176841 -6.172414 9.482339 26.787536 12.548969 55.149584 18.649543 -29.698311 -0.442555 -14.180554 7.313158 21.666934 -29.244527 9.142358 -0.000003 -0.000002 0.000003 5.673399 7.585021 36.844175 1.050433 3.824524 68.900250 0.499578 3.026036 62.196447 -0.000001 -0.000001 -0.000001 -0.125680 1.886098 45.000749 -1.169031 3.204652 68.417691 -0.936421 1.813616 41.107545 0.000003 0.000001 -0.000009 -5.312006 1.216638 58.508801 -0.745214 1.667569 48.011281 -0.816486 1.840596 53.666569 0.000001 0.000001 -0.000003 -7.756805 -9.376444 47.264004 -0.526039 1.541603 45.600501 -0.508187 0.803472 24.986625 0.000001 0.000001 0.000002 -63.007874 33.801431 54.417490 37.174910 -20.030300 -2.933900 10.143015 3.705105 7.717817 8.048745 0.050987 -10.351725 -0.000001 0.000002 0.000000 -40.855729 -10.467130 -28.239762 46.481131 1.865549 6.808810 -19.246817 -1.203964 9.494695 2.707569 3.628872 -0.099589 0.000000 0.000000 -0.000000 
17.727921 80.656555 -1.343807 159.788396 -51.271361 167.766016 10.648209 -2.543605 1.034818 5.250512 -0.484462 -6.276220 -8.478911 0.949785 -3.544704 7.767303 17.380497 -6.516964 -11.844161 15.440636 -1.166644 0.000001 0.000000 -0.000000 -1.937885 -15.142289 -5.052882 -19.663763 -2.944581 -47.020067 -19.553730 -38.381801 -17.487690 2.111495 -14.718774 -4.499558 20.134629 -4.871628 10.545810 3.156856 16.792005 -9.255795 9.111395 14.454596 -1.308147 0.000001 0.000001 0.000001 -1.443849 3.763488 -36.546532 -0.939158 -0.757011 -31.365185 -2.235091 -0.211242 -49.300609 0.000000 0.000004 -0.000005 0.888830 4.619177 -29.983424 -0.962885 -1.200931 -35.191208 -1.017155 -1.330973 -38.354982 -0.000003 0.000000 -0.000000 2.435806 2.926277 -22.194090 0.004864 -1.986617 -30.582951 0.045912 -2.357885 -34.151953 -0.000001 0.000002 0.000004 -0.831296 -0.054851 -12.647459 0.034620 -0.738037 -16.834989 -0.095328 -1.022902 -19.800283 -0.000002 -0.000000 0.000001 -5.309937 23.670441 1.302398 -7.854091 -23.760695 54.816530 15.665546 31.261906 -5.411164 8.289421 29.299019 12.085735 55.149580 18.649545 -29.698308 -0.442550 -14.180548 7.313154 21.666941 -29.244527 9.142361 0.000001 -0.000004 0.000001 5.673401 7.585016 36.844171 1.050435 3.824529 68.900250 0.499583 3.026040 62.196447 0.000000 -0.000005 -0.000000 -0.125680 1.886100 45.000746 -1.169030 3.204653 68.417684 -0.936418 1.813614 41.107541 0.000001 0.000000 -0.000008 -5.312010 1.216643 58.508807 -0.745217 1.667568 48.011281 -0.816490 1.840596 53.666569 -0.000001 0.000001 -0.000001 -7.756803 -9.376442 47.264007 -0.526042 1.541600 45.600498 -0.508187 0.803474 24.986623 0.000000 0.000000 -0.000003 -62.917790 31.389524 52.900963 38.309640 -19.339196 -2.399227 8.409979 4.680820 5.182895 9.011976 -7.386967 -3.594009 -0.000001 -0.000000 0.000000 -39.711386 -9.923788 -28.334051 46.765947 2.572350 6.623530 -20.710633 -0.922922 10.105762 2.865870 3.357603 -0.097543 0.000000 -0.000002 0.000000 
16.042618 80.372498 -2.173496 160.556929 -50.084780 168.741695 10.677021 -2.173102 0.759029 5.350535 0.114526 -6.498944 -8.928019 2.007644 -3.656733 8.001271 17.293327 -7.856918 -11.984504 14.949551 0.021527 -0.000001 0.000000 -0.000000 -1.944357 -15.151754 -5.097260 -18.357778 -1.721312 -47.090101 -20.146698 -39.029033 -17.384145 1.621742 -15.003716 -5.844720 20.040545 -5.123996 10.696507 2.914901 16.490435 -9.196880 8.922194 14.128601 -1.271529 0.000000 -0.000000 0.000003 -1.229572 3.848421 -35.762304 -0.928755 -0.731046 -30.564980 -2.232913 -0.199165 -48.500115 0.000001 0.000003 -0.000004 1.041797 4.755156 -29.106940 -0.942922 -1.168210 -34.299222 -0.995052 -1.299293 -37.462898 0.000002 0.000001 0.000003 2.421509 3.020183 -21.231640 0.037808 -1.937202 -29.619474 0.085138 -2.307706 -33.188275 0.000000 -0.000000 0.000009 -0.917414 -0.357062 -11.964100 0.042058 -0.712763 -16.165308 -0.086378 -0.992623 -19.130687 0.000002 -0.000002 -0.000001 -5.192314 23.382799 1.104878 -6.560035 -24.454338 54.581223 13.565405 29.836063 -4.660253 6.972946 31.741815 11.875179 55.149584 18.649545 -29.698318 -0.442551 -14.180549 7.313156 21.666938 -29.244527 9.142353 0.000003 0.000001 0.000002 5.673404 7.585022 36.844175 1.050434 3.824525 68.900244 0.499584 3.026041 62.196454 -0.000000 -0.000003 -0.000001 -0.125676 1.886102 45.000749 -1.169030 3.204655 68.417684 -0.936418 1.813617 41.107538 0.000002 0.000001 -0.000001 -5.312001 1.216642 58.508801 -0.745219 1.667572 48.011281 -0.816485 1.840599 53.666569 0.000001 0.000000 -0.000008 -7.756803 -9.376444 47.264007 -0.526042 1.541604 45.600498 -0.508190 0.803474 24.986623 0.000000 -0.000002 0.000005 -63.872227 29.887132 52.317716 39.543916 -18.649128 -2.010164 6.218273 5.512057 3.437690 7.803749 -10.655507 -0.363620 -0.000000 0.000000 -0.000002 -38.520061 -9.406087 -28.757736 46.979096 3.444354 6.405273 -22.141274 -0.633628 10.871713 2.998107 3.010226 -0.091490 -0.000000 0.000002 -0.000000 
14.242668 80.008598 -2.895289 161.351116 -48.947939 169.745350 10.742474 -1.725104 0.423330 5.404018 0.800942 -6.568876 -9.293145 3.026690 -3.693584 8.183584 16.878586 -8.830335 -12.181057 14.602813 1.040749 -0.000002 -0.000000 -0.000000 -1.949953 -15.247532 -4.979527 -16.872866 -0.929314 -47.211364 -20.598090 -39.025157 -17.070659 0.925301 -15.469540 -6.922632 19.919545 -5.450591 10.890702 2.603735 16.099695 -9.122625 8.678268 13.706859 -1.225884 0.000000 -0.000000 0.000003 -0.955826 3.968070 -34.749677 -0.915438 -0.695110 -29.530374 -2.230347 -0.182215 -47.464996 -0.000001 0.000001 -0.000004 1.234377 4.939555 -27.974906 -0.917738 -1.126398 -33.145829 -0.967226 -1.258772 -36.309381 -0.000001 -0.000002 0.000003 2.400327 3.142168 -19.987125 0.079194 -1.872548 -28.373690 0.134605 -2.241926 -31.942223 0.000001 -0.000001 0.000008 -1.017901 -0.750813 -11.081225 0.051423 -0.674961 -15.299528 -0.073420 -0.953886 -18.264882 -0.000002 0.000003 0.000001 -5.117042 23.336275 1.053972 -4.856640 -25.764701 54.591964 11.064922 29.750112 -4.101436 5.722094 33.501934 12.064721 55.149587 18.649541 -29.698308 -0.442551 -14.180547 7.313156 21.666936 -29.244524 9.142354 0.000002 -0.000003 0.000002 5.673404 7.585015 36.844168 1.050437 3.824527 68.900244 0.499582 3.026039 62.196454 -0.000002 -0.000001 -0.000001 -0.125676 1.886100 45.000746 -1.169032 3.204651 68.417684 -0.936419 1.813612 41.107541 0.000002 -0.000003 0.000001 -5.312003 1.216640 58.508801 -0.745217 1.667569 48.011285 -0.816480 1.840595 53.666569 -0.000000 0.000000 -0.000005 -7.756803 -9.376443 47.264004 -0.526041 1.541600 45.600498 -0.508189 0.803471 24.986625 -0.000000 -0.000001 -0.000003 -65.204913 28.808594 52.047131 40.680364 -17.950932 -1.768655 4.155186 6.287315 1.816404 5.637715 -11.943009 2.144183 0.000001 -0.000000 0.000001 -37.341484 -8.890851 -29.467246 47.167616 4.443912 6.141558 -23.494053 -0.376219 11.786697 3.052545 2.628045 -0.081341 0.000000 -0.000000 -0.000000 
